<svg width="38" height="40" viewBox="0 0 38 40" fill="none" xmlns="http://www.w3.org/2000/svg">
<path d="M35.9418 27.3478L33.64 35.1305L29.1213 33.8947L35.9418 27.3478Z" fill="#E4761B"/>
<path d="M29.1213 33.8947L33.4796 27.9233L35.9418 27.3478L29.1213 33.8947Z" fill="#E4761B"/>
<path d="M32.5552 21.4802L35.9418 27.3478L33.4797 27.9233L32.5552 21.4802ZM32.5552 21.4802L34.7343 19.9708L35.9418 27.3478L32.5552 21.4802Z" fill="#F6851B"/>
<path d="M29.7817 17.0464L36.0456 14.4805L35.7343 15.8861L29.7817 17.0464ZM35.5362 17.5747L29.7817 17.0464L35.7343 15.8861L35.5362 17.5747Z" fill="#763D16"/>
<path d="M35.5362 17.5747L34.7343 19.9708L29.7817 17.0464L35.5362 17.5747ZM36.7909 15.0748L35.7343 15.8861L36.0456 14.4805L36.7909 15.0748ZM35.5362 17.5747L35.7343 15.8861L36.5739 16.5842L35.5362 17.5747Z" fill="#763D16"/>
<path d="M24.2629 31.9986L25.8289 32.4985L29.1212 33.8947L24.2629 31.9986Z" fill="#E2761B"/>
<path d="M34.7343 19.9708L35.5362 17.5747L36.2248 18.1029L34.7343 19.9708ZM34.7343 19.9708L28.2346 17.8294L29.7817 17.0464L34.7343 19.9708Z" fill="#763D16"/>
<path d="M31.3288 9.69768L29.7817 17.0464L28.2346 17.8294L31.3288 9.69768Z" fill="#763D16"/>
<path d="M36.0456 14.4805L29.7817 17.0464L31.3288 9.69768L36.0456 14.4805Z" fill="#763D16"/>
<path d="M31.3289 9.69768L37.8663 8.94299L36.0456 14.4805L31.3289 9.69768Z" fill="#763D16"/>
<path d="M34.7343 19.9708L32.5552 21.4802L28.2346 17.8294L34.7343 19.9708Z" fill="#F6851B"/>
<path d="M37.5833 3.65079L37.8663 8.943L31.3289 9.69768L37.5833 3.65079Z" fill="#763D16"/>
<path d="M37.5831 3.65079L24.5177 13.1504L24.3479 6.70725L37.5831 3.65079Z" fill="#E2761B"/>
<path d="M14.6313 5.93369L24.3479 6.70723L24.5177 13.1503L14.6313 5.93369Z" fill="#F6851B"/>
<path d="M28.2346 17.8294L24.5178 13.1504L31.3288 9.69768L28.2346 17.8294Z" fill="#763D16"/>
<path d="M28.2345 17.8294L32.555 21.4802L26.4893 22.1499L28.2345 17.8294Z" fill="#E4761B"/>
<path d="M26.4894 22.1499L24.5178 13.1504L28.2346 17.8294L26.4894 22.1499Z" fill="#E4761B"/>
<path d="M31.3288 9.69768L24.5178 13.1504L37.5833 3.65079L31.3288 9.69768Z" fill="#763D16"/>
<path d="M14.7162 33.7437L17.801 36.9606L13.603 33.14L14.7162 33.7437Z" fill="#C0AD9E"/>
<path d="M29.1213 33.8947L30.5835 28.3383L33.4796 27.9233L29.1213 33.8947Z" fill="#CD6116"/>
<path d="M2.20728 18.2633L7.54666 12.6504L2.89592 17.5935L2.20728 18.2633Z" fill="#E2761B"/>
<path d="M33.4795 27.9233L30.5835 28.3383L32.5551 21.4801L33.4795 27.9233ZM24.5177 13.1503L19.3198 12.9805L14.6313 5.93369L24.5177 13.1503Z" fill="#F6851B"/>
<path d="M32.5551 21.4802L30.5835 28.3383L30.4231 24.9894L32.5551 21.4802Z" fill="#E4751F"/>
<path d="M26.4893 22.1499L32.555 21.4802L30.423 24.9894L26.4893 22.1499Z" fill="#CD6116"/>
<path d="M19.3198 12.9805L24.5177 13.1503L26.4893 22.1499L19.3198 12.9805Z" fill="#F6851B"/>
<path d="M19.3199 12.9805L5.29221 0L14.6314 5.93369L19.3199 12.9805ZM14.622 35.7154L2.43385 39.4888L0 30.1967L14.622 35.7154Z" fill="#E4761B"/>
<path d="M4.01855 20.584L8.62212 16.9709L12.4804 17.8671L4.01855 20.584Z" fill="#763D16"/>
<path d="M12.4806 17.8671L8.62231 16.9709L10.6883 8.44301L12.4806 17.8671Z" fill="#763D16"/>
<path d="M2.896 17.5935L8.62215 16.9709L4.01859 20.584L2.896 17.5935Z" fill="#763D16"/>
<path d="M30.423 24.9894L28.0458 23.7914L26.4893 22.1499L30.423 24.9894Z" fill="#CD6116"/>
<path d="M2.89588 17.5935L2.49023 15.4521L8.62203 16.9709L2.89588 17.5935Z" fill="#763D16"/>
<path d="M27.5552 26.4894L28.0457 23.7914L30.423 24.9894L27.5552 26.4894Z" fill="#233447"/>
<path d="M30.5833 28.3383L27.5552 26.4894L30.423 24.9894L30.5833 28.3383Z" fill="#F6851B"/>
<path d="M8.62225 16.9709L2.49046 15.4521L1.99048 13.6503L8.62225 16.9709ZM10.6882 8.44301L8.62225 16.9709L1.99048 13.6503L10.6882 8.44301ZM10.6882 8.44301L19.3199 12.9805L12.4806 17.8671L10.6882 8.44301Z" fill="#763D16"/>
<path d="M12.4805 17.8671L19.3198 12.9805L22.3668 22.2914L12.4805 17.8671ZM22.3668 22.2914L12.9144 22.0933L12.4805 17.8671L22.3668 22.2914Z" fill="#E4761B"/>
<path d="M4.01855 20.584L12.4804 17.8671L12.9144 22.0933L4.01855 20.584ZM26.4892 22.1499L22.3668 22.2914L19.3197 12.9805L26.4892 22.1499Z" fill="#F6851B"/>
<path d="M28.0458 23.7914L27.5552 26.4894L26.4893 22.1499L28.0458 23.7914Z" fill="#CD6116"/>
<path d="M5.29224 0L19.3199 12.9805L10.6882 8.44301L5.29224 0Z" fill="#763D16"/>
<path d="M0 30.1967L11.8297 29.7062L14.622 35.7154L0 30.1967Z" fill="#E4761B"/>
<path d="M14.6219 35.7154L11.8296 29.7062L17.6406 29.4232L14.6219 35.7154Z" fill="#CD6116"/>
<path d="M27.5554 26.4894L30.5835 28.3383L32.2533 32.2721L27.5554 26.4894ZM12.9145 22.0933L0 30.1967L4.01868 20.584L12.9145 22.0933ZM11.8297 29.7062L0 30.1967L12.9145 22.0933L11.8297 29.7062ZM26.4894 22.1499L27.2629 24.9611L23.5272 25.1781L26.4894 22.1499ZM23.5272 25.1781L22.3669 22.2914L26.4894 22.1499L23.5272 25.1781Z" fill="#F6851B"/>
<path d="M17.8012 36.9606L14.6221 35.7154L25.6782 37.5738L17.8012 36.9606Z" fill="#C0AD9E"/>
<path d="M4.01851 20.584L2.20728 18.2633L2.89592 17.5935L4.01851 20.584Z" fill="#763D16"/>
<path d="M26.9328 36.1965L25.6782 37.5738L14.6221 35.7154L26.9328 36.1965Z" fill="#D7C1B3"/>
<path d="M27.5271 32.8193L14.6221 35.7154L17.6408 29.4232L27.5271 32.8193Z" fill="#E4761B"/>
<path d="M14.6221 35.7154L27.5271 32.8193L26.9328 36.1965L14.6221 35.7154Z" fill="#D7C1B3"/>
<path d="M1.99043 13.6503L1.56592 6.39594L10.6881 8.44301L1.99043 13.6503ZM2.89605 17.5935L1.64139 16.32L2.4904 15.4521L2.89605 17.5935Z" fill="#763D16"/>
<path d="M20.2539 24.1593L22.367 22.2914L22.0651 26.8573L20.2539 24.1593Z" fill="#CD6116"/>
<path d="M22.3669 22.2914L20.2538 24.1593L17.1785 25.7535L22.3669 22.2914Z" fill="#CD6116"/>
<path d="M32.2531 32.2721L31.6776 31.8476L27.5552 26.4894L32.2531 32.2721Z" fill="#F6851B"/>
<path d="M17.1785 25.7535L12.9146 22.0933L22.367 22.2914L17.1785 25.7535Z" fill="#CD6116"/>
<path d="M22.0649 26.8573L22.3668 22.2914L23.5271 25.1781L22.0649 26.8573Z" fill="#E4751F"/>
<path d="M1.22632 14.3673L1.99043 13.6503L2.49041 15.4521L1.22632 14.3673Z" fill="#763D16"/>
<path d="M22.065 26.8573L17.1785 25.7536L20.2538 24.1593L22.065 26.8573Z" fill="#233447"/>
<path d="M10.6881 8.44301L1.56592 6.39594L5.29216 0L10.6881 8.44301Z" fill="#763D16"/>
<path d="M25.678 37.5738L26.1969 38.9888L17.801 36.9606L25.678 37.5738Z" fill="#C0AD9E"/>
<path d="M17.6407 29.4232L17.1785 25.7536L22.065 26.8573L17.6407 29.4232Z" fill="#F6851B"/>
<path d="M12.9146 22.0933L17.1785 25.7535L17.6408 29.4232L12.9146 22.0933Z" fill="#E4751F"/>
<path d="M23.5272 25.1781L27.2629 24.9611L31.6777 31.8476L23.5272 25.1781ZM12.9144 22.0933L17.6406 29.4232L11.8296 29.7062L12.9144 22.0933Z" fill="#F6851B"/>
<path d="M23.5271 25.1781L28.1684 32.2438L22.0649 26.8573L23.5271 25.1781Z" fill="#E4751F"/>
<path d="M22.0649 26.8573L28.1684 32.2438L27.527 32.8193L22.0649 26.8573Z" fill="#F6851B"/>
<path d="M27.527 32.8193L17.6406 29.4232L22.065 26.8573L27.527 32.8193ZM31.6777 31.8476L28.1684 32.2438L23.5272 25.1781L31.6777 31.8476Z" fill="#F6851B"/>
<path d="M32.6024 35.1682L31.0931 38.1964L26.1971 38.9888L32.6024 35.1682ZM26.1971 38.9888L25.6782 37.5738L26.9329 36.1965L26.1971 38.9888Z" fill="#C0AD9E"/>
<path d="M26.9328 36.1965L27.8573 35.8286L26.197 38.9888L26.9328 36.1965ZM26.197 38.9888L27.8573 35.8286L32.6024 35.1682L26.197 38.9888Z" fill="#C0AD9E"/>
<path d="M31.6779 31.8476L32.8382 32.5551L29.3101 32.9796L31.6779 31.8476Z" fill="#161616"/>
<path d="M29.3099 32.9796L28.1685 32.2438L31.6777 31.8476L29.3099 32.9796ZM28.9043 33.5362L33.1965 33.0174L32.6022 35.1682L28.9043 33.5362Z" fill="#161616"/>
<path d="M32.6024 35.1682L27.8573 35.8286L28.9045 33.5362L32.6024 35.1682ZM27.8573 35.8286L26.9329 36.1965L27.5272 32.8193L27.8573 35.8286ZM27.5272 32.8193L28.1687 32.2438L29.3101 32.9796L27.5272 32.8193ZM32.8383 32.5551L33.1967 33.0174L28.9045 33.5362L32.8383 32.5551Z" fill="#161616"/>
<path d="M28.9041 33.5362L29.3098 32.9796L32.8379 32.5551L28.9041 33.5362ZM27.5269 32.8193L28.9041 33.5362L27.857 35.8286L27.5269 32.8193Z" fill="#161616"/>
<path d="M29.3098 32.9796L28.9041 33.5362L27.5269 32.8193L29.3098 32.9796Z" fill="#161616"/>
</svg>
