<svg width="41" height="26" viewBox="0 0 41 26" fill="none" xmlns="http://www.w3.org/2000/svg">
<path d="M8.26894 5.11316C14.8559 -1.33602 25.5355 -1.33602 32.1224 5.11316L32.9152 5.88933C33.2445 6.21179 33.2445 6.7346 32.9152 7.05706L30.2033 9.71218C30.0387 9.87341 29.7717 9.87341 29.607 9.71218L28.5161 8.64408C23.9209 4.14497 16.4705 4.14497 11.8753 8.64408L10.707 9.78793C10.5423 9.94916 10.2753 9.94916 10.1107 9.78793L7.39883 7.13281C7.06948 6.81035 7.06948 6.28754 7.39883 5.96508L8.26894 5.11316ZM37.7308 10.6042L40.1443 12.9673C40.4737 13.2898 40.4737 13.8126 40.1443 14.135L29.2615 24.7904C28.9321 25.1129 28.3982 25.1129 28.0688 24.7904C28.0688 24.7904 28.0688 24.7904 28.0688 24.7904L20.3448 17.228C20.2625 17.1474 20.129 17.1474 20.0467 17.228C20.0467 17.228 20.0467 17.228 20.0467 17.228L12.3228 24.7904C11.9935 25.1129 11.4595 25.1129 11.1302 24.7904C11.1302 24.7904 11.1302 24.7904 11.1302 24.7904L0.247011 14.1349C-0.082337 13.8124 -0.082337 13.2896 0.247011 12.9672L2.66056 10.6041C2.98991 10.2816 3.52389 10.2816 3.85324 10.6041L11.5773 18.1666C11.6597 18.2472 11.7932 18.2472 11.8755 18.1666C11.8755 18.1666 11.8755 18.1666 11.8755 18.1666L19.5992 10.6041C19.9285 10.2816 20.4625 10.2816 20.7919 10.6041C20.7919 10.6041 20.7919 10.6041 20.7919 10.6041L28.516 18.1666C28.5983 18.2472 28.7318 18.2472 28.8141 18.1666L36.5381 10.6042C36.8675 10.2818 37.4014 10.2818 37.7308 10.6042Z" fill="#3B99FC"/>
</svg>
